<svg width="24" height="24" viewBox="0 0 24 24" fill="none" xmlns="http://www.w3.org/2000/svg">
<path d="M6.85002 11.618L10.1223 12.391C10.7075 12.5292 11.0001 12.5983 11.2009 12.7991C11.4017 12.9999 11.4708 13.2925 11.609 13.8777L12.382 17.15C13.0371 19.9235 13.3646 21.3102 14.1193 21.3441C14.874 21.378 15.3246 20.0262 16.2258 17.3227L19.7351 6.79473C20.287 5.13894 20.563 4.31105 20.126 3.87403C19.689 3.43702 18.8611 3.71298 17.2053 4.26491L6.67733 7.77422C3.97377 8.67541 2.62199 9.126 2.6559 9.88068C2.68981 10.6354 4.07654 10.9629 6.85002 11.618Z" stroke="#67686B" stroke-width="2"/>
</svg>
